<svg width="15" height="19" viewBox="0 0 15 19" fill="none" xmlns="http://www.w3.org/2000/svg">
<path d="M0.763552 18.2969H4.07143V5.64765H0.763552V18.2969ZM2.41749 0.296059C1.25001 0.296059 0.37439 1.17177 0.37439 2.24209C0.37439 3.31241 1.25001 4.28542 2.41749 4.28542C3.48769 4.28542 4.4606 3.40971 4.4606 2.24209C4.3633 1.17177 3.48769 0.296059 2.41749 0.296059ZM13.7032 15.2805C13.5086 15.4751 13.0222 15.6697 12.5357 15.6697C11.7574 15.6697 11.3682 15.0859 11.3682 14.3075V8.56669H13.9951V5.64765H11.4655V2.14479H8.06035V5.64765H5.91995V8.56669H8.06035V15.1832C8.06035 17.4211 9.32513 18.6861 11.6601 18.6861C13.0222 18.6861 13.8978 18.2969 14.4815 17.9076L13.7032 15.2805Z" fill="#10CB95"/>
</svg>
