<svg width="55" height="19" viewBox="0 0 55 19" fill="none" xmlns="http://www.w3.org/2000/svg">
<path d="M19.5554 0.78257H13.6207L9.82636 12.5561L6.03202 0.78257H0L6.42118 18.2969H13.1342L19.5554 0.78257Z" fill="#484848"/>
<path d="M25.8794 12.7507H29.9656C31.9114 12.7507 33.4681 12.1669 34.6356 10.9992C35.7058 9.83162 36.2895 8.46939 36.2895 6.71797C36.2895 4.96654 35.7058 3.60432 34.6356 2.4367C33.3708 1.36638 31.9114 0.78257 29.8683 0.78257H20.5284V18.2969H25.8794V12.7507ZM25.8794 8.17749V5.45305H29.1873C29.6737 5.45305 30.0629 5.55035 30.3548 5.84225C30.6466 6.03685 30.8412 6.42606 30.8412 6.91257C30.8412 7.39908 30.6466 7.69098 30.3548 7.88559C30.0629 8.08019 29.6737 8.27479 29.1873 8.27479H25.8794V8.17749Z" fill="#484848"/>
<path d="M54.7746 0.78257H49.4236V9.0532L43.3916 0.78257H37.9433V18.2969H43.2943V9.44241L49.7155 18.2969H54.7746V0.78257Z" fill="#484848"/>
</svg>
