<svg width="26" height="21" viewBox="0 0 26 21" fill="none" xmlns="http://www.w3.org/2000/svg">
<g id="Active">
<rect id="Rectangle 266" width="21" height="21" fill="#78C2E0"/>
<path id="Vector" d="M24.1467 2.77544C24.0854 2.65342 23.9768 2.5618 23.8462 2.52186C23.7156 2.48192 23.5744 2.49714 23.4553 2.56398C17.8884 5.68843 13.6916 9.5529 11.6352 11.7388L7.3941 8.6541C7.21831 8.52624 6.98006 8.52661 6.80467 8.655L4.70467 10.1922C4.58378 10.2807 4.50894 10.4187 4.50075 10.5683C4.49256 10.7179 4.55188 10.8633 4.66239 10.9645L12.7624 18.3793C12.8835 18.4902 13.0514 18.5345 13.2115 18.4979C13.3715 18.4613 13.5034 18.3484 13.5643 18.1959C14.8273 15.0334 19.1698 8.8584 24.521 4.37804C24.6989 4.22911 24.7509 3.97739 24.6467 3.77011L24.1467 2.77544Z" fill="white" stroke="#78C2E0" stroke-linejoin="round"/>
</g>
</svg>
